# xmcd
#
# Track frame offsets: 
#        150
#        10143
#        23272
#        35732
#        45704
#        55922
#        69782
#        79541
#        88750
#        100460
#
# Disc length: 1616 seconds
#
# Revision: 0
# Processed by: cddbd v1.5.2PL0 Copyright (c) Steve Scherf et al.
# Submitted via: ExactAudioCopy v0.99pb4
#
DISCID=6f064e0a
DTITLE=Rick Allred - Just As I Am
DYEAR=1900
DGENRE=Bluegrass
TTITLE0=Low Water Bridge
TTITLE1=Rhode Island Red
TTITLE2=I Will Always Love You
TTITLE3=Silver Bells
TTITLE4=Groundhog Shuffle
TTITLE5=So Happy Together
TTITLE6=Pike County Breakdown
TTITLE7=Just As I Am
TTITLE8=Happy Jack
TTITLE9=Orange Blossom Mandolin
EXTD=
EXTT0=
EXTT1=
EXTT2=
EXTT3=
EXTT4=
EXTT5=
EXTT6=
EXTT7=
EXTT8=
EXTT9=
PLAYORDER=
